<svg xmlns="http://www.w3.org/2000/svg">
    <!-- Facebook -->
    <symbol viewBox="0 0 24 24" id="facebook">
        <path d="m15.997 3.985h2.191v-3.816c-.378-.052-1.678-.169-3.192-.169-3.159 0-5.323 1.987-5.323 5.639v3.361h-3.486v4.266h3.486v10.734h4.274v-10.733h3.345l.531-4.266h-3.877v-2.939c.001-1.233.333-2.077 2.051-2.077z"/>
    </symbol>
    <!-- Twitter -->
    <symbol viewBox="0 0 512 512" id="twitter">
        <g>
            <path d="M512,97.248c-19.04,8.352-39.328,13.888-60.48,16.576c21.76-12.992,38.368-33.408,46.176-58.016
			c-20.288,12.096-42.688,20.64-66.56,25.408C411.872,60.704,384.416,48,354.464,48c-58.112,0-104.896,47.168-104.896,104.992
			c0,8.32,0.704,16.32,2.432,23.936c-87.264-4.256-164.48-46.08-216.352-109.792c-9.056,15.712-14.368,33.696-14.368,53.056
			c0,36.352,18.72,68.576,46.624,87.232c-16.864-0.32-33.408-5.216-47.424-12.928c0,0.32,0,0.736,0,1.152
			c0,51.008,36.384,93.376,84.096,103.136c-8.544,2.336-17.856,3.456-27.52,3.456c-6.72,0-13.504-0.384-19.872-1.792
			c13.6,41.568,52.192,72.128,98.08,73.12c-35.712,27.936-81.056,44.768-130.144,44.768c-8.608,0-16.864-0.384-25.12-1.44
			C46.496,446.88,101.6,464,161.024,464c193.152,0,298.752-160,298.752-298.688c0-4.64-0.16-9.12-0.384-13.568
			C480.224,136.96,497.728,118.496,512,97.248z"/>
        </g>
    </symbol>
    <!-- Linked In -->
    <symbol viewBox="0 0 510 510" id="linkedin">
        <g>
            <path d="M459,0H51C22.95,0,0,22.95,0,51v408c0,28.05,22.95,51,51,51h408c28.05,0,51-22.95,51-51V51C510,22.95,487.05,0,459,0z
			 M153,433.5H76.5V204H153V433.5z M114.75,160.65c-25.5,0-45.9-20.4-45.9-45.9s20.4-45.9,45.9-45.9s45.9,20.4,45.9,45.9
			S140.25,160.65,114.75,160.65z M433.5,433.5H357V298.35c0-20.399-17.85-38.25-38.25-38.25s-38.25,17.851-38.25,38.25V433.5H204
			V204h76.5v30.6c12.75-20.4,40.8-35.7,63.75-35.7c48.45,0,89.25,40.8,89.25,89.25V433.5z"/>
        </g>
    </symbol>
    <!-- Instagram -->
    <symbol viewBox="0 0 511 511.9" id="instagram">
        <path d="m510.949219 150.5c-1.199219-27.199219-5.597657-45.898438-11.898438-62.101562-6.5-17.199219-16.5-32.597657-29.601562-45.398438-12.800781-13-28.300781-23.101562-45.300781-29.5-16.296876-6.300781-34.898438-10.699219-62.097657-11.898438-27.402343-1.300781-36.101562-1.601562-105.601562-1.601562s-78.199219.300781-105.5 1.5c-27.199219 1.199219-45.898438 5.601562-62.097657 11.898438-17.203124 6.5-32.601562 16.5-45.402343 29.601562-13 12.800781-23.097657 28.300781-29.5 45.300781-6.300781 16.300781-10.699219 34.898438-11.898438 62.097657-1.300781 27.402343-1.601562 36.101562-1.601562 105.601562s.300781 78.199219 1.5 105.5c1.199219 27.199219 5.601562 45.898438 11.902343 62.101562 6.5 17.199219 16.597657 32.597657 29.597657 45.398438 12.800781 13 28.300781 23.101562 45.300781 29.5 16.300781 6.300781 34.898438 10.699219 62.101562 11.898438 27.296876 1.203124 36 1.5 105.5 1.5s78.199219-.296876 105.5-1.5c27.199219-1.199219 45.898438-5.597657 62.097657-11.898438 34.402343-13.300781 61.601562-40.5 74.902343-74.898438 6.296876-16.300781 10.699219-34.902343 11.898438-62.101562 1.199219-27.300781 1.5-36 1.5-105.5s-.101562-78.199219-1.300781-105.5zm-46.097657 209c-1.101562 25-5.300781 38.5-8.800781 47.5-8.601562 22.300781-26.300781 40-48.601562 48.601562-9 3.5-22.597657 7.699219-47.5 8.796876-27 1.203124-35.097657 1.5-103.398438 1.5s-76.5-.296876-103.402343-1.5c-25-1.097657-38.5-5.296876-47.5-8.796876-11.097657-4.101562-21.199219-10.601562-29.398438-19.101562-8.5-8.300781-15-18.300781-19.101562-29.398438-3.5-9-7.699219-22.601562-8.796876-47.5-1.203124-27-1.5-35.101562-1.5-103.402343s.296876-76.5 1.5-103.398438c1.097657-25 5.296876-38.5 8.796876-47.5 4.101562-11.101562 10.601562-21.199219 19.203124-29.402343 8.296876-8.5 18.296876-15 29.398438-19.097657 9-3.5 22.601562-7.699219 47.5-8.800781 27-1.199219 35.101562-1.5 103.398438-1.5 68.402343 0 76.5.300781 103.402343 1.5 25 1.101562 38.5 5.300781 47.5 8.800781 11.097657 4.097657 21.199219 10.597657 29.398438 19.097657 8.5 8.300781 15 18.300781 19.101562 29.402343 3.5 9 7.699219 22.597657 8.800781 47.5 1.199219 27 1.5 35.097657 1.5 103.398438s-.300781 76.300781-1.5 103.300781zm0 0"/>
        <path d="m256.449219 124.5c-72.597657 0-131.5 58.898438-131.5 131.5s58.902343 131.5 131.5 131.5c72.601562 0 131.5-58.898438 131.5-131.5s-58.898438-131.5-131.5-131.5zm0 216.800781c-47.097657 0-85.300781-38.199219-85.300781-85.300781s38.203124-85.300781 85.300781-85.300781c47.101562 0 85.300781 38.199219 85.300781 85.300781s-38.199219 85.300781-85.300781 85.300781zm0 0"/>
        <path d="m423.851562 119.300781c0 16.953125-13.746093 30.699219-30.703124 30.699219-16.953126 0-30.699219-13.746094-30.699219-30.699219 0-16.957031 13.746093-30.699219 30.699219-30.699219 16.957031 0 30.703124 13.742188 30.703124 30.699219zm0 0"/>
    </symbol>
    <!-- Yelp -->
    <symbol viewBox="0 0 84.937 84.937" id="yelp">        <!-- viewBox="0 0 97.937 97.937" -->
        <g>
            <path d="M42.117,0.022c-6.995,0.42-13.626,2.332-19.86,5.498c-3.151,1.599-3.525,3.392-1.647,6.366
			c6.502,10.299,13.004,20.597,19.544,30.872c0.683,1.073,1.498,2.123,2.453,2.95c2.367,2.048,5.353,1.168,6.183-1.833
			c0.378-1.372,0.365-2.852,0.484-3.878c-0.823-12.203-1.6-23.979-2.419-35.754C46.624,0.942,45.452-0.178,42.117,0.022z"/>
            <path d="M60.41,55.08c0.344-0.049,0.775-0.072,1.188-0.174c6.864-1.708,13.734-3.396,20.583-5.158
			c3.014-0.775,3.979-2.483,2.888-5.407c-2.019-5.402-5.175-10.112-9.399-14.036c-2.274-2.113-4.274-1.875-6.114,0.591
			c-4.296,5.758-8.53,11.562-12.795,17.342c-1.034,1.4-1.111,2.883-0.308,4.38C57.271,54.141,58.545,55.028,60.41,55.08z"/>
            <path d="M40.762,58.363c0.09-2.102-0.806-3.545-2.843-4.38c-6.446-2.641-12.896-5.272-19.363-7.863
			c-3.274-1.312-5.189-0.451-5.968,3c-0.704,3.118-1.132,11.078-0.424,16.727c0.606,2.796,2.313,3.719,5.021,2.881
			c6.81-2.104,13.599-4.274,20.39-6.438C39.69,61.613,40.676,60.354,40.762,58.363z"/>
            <path d="M83.524,70.723c-7.013-2.346-14.021-4.7-21.041-7.022c-1.711-0.566-3.19-0.053-4.328,1.31
			c-1.189,1.426-1.708,3.087-0.688,4.759c3.974,6.493,7.999,12.954,12.067,19.388c0.983,1.558,2.55,1.891,4.234,1.086
			c0.719-0.342,1.41-0.794,2.008-1.318c3.871-3.393,7.028-7.358,9.358-11.956c0.45-0.892,0.673-1.898,1.001-2.853
			C86.036,72.305,85.123,71.258,83.524,70.723z"/>
            <path d="M48.922,72.397c-0.01-2.089-0.826-3.312-2.596-4.016c-1.891-0.75-3.649-0.406-4.964,1.142
			c-4.693,5.526-9.372,11.064-14.004,16.641c-1.751,2.11-1.568,4.105,0.696,5.659c4.998,3.427,10.57,5.484,16.606,6.082
			c2.706,0.267,4.107-1.187,4.137-3.917c0.041-3.599,0.01-7.197,0.01-10.796c0.041,0,0.081,0,0.12,0
			C48.927,79.594,48.941,75.995,48.922,72.397z"/>
        </g>
    </symbol>
    <!-- Google -->
    <symbol viewBox="0 0 512 512" id="google">
        <g>
            <g>
                <path d="M113.597,193.064l-87.204-50.347C9.543,176.768,0.001,215.17,0,255.998c0,40.263,9.645,78.731,26.754,113.084
			l86.837-50.135c-8.565-19.286-13.418-40.558-13.417-62.949C100.175,233.608,105.031,212.343,113.597,193.064z"/>
            </g>
        </g>
        <g>
            <g>
                <path d="M423.925,62.768C378.935,23.634,320.145-0.043,255.823,0C167.822,0.059,89.276,44.985,43.127,113.824l87.275,50.39
			c28.381-38.714,74.04-64.041,125.601-64.04c37.587,0.001,72.042,13.437,98.954,35.701c6.588,5.449,16.218,4.95,22.263-1.095
			l47.531-47.531C431.605,80.395,431.238,69.128,423.925,62.768z"/>
            </g>
        </g>
        <g>
            <g>
                <path d="M510.247,226.38c-0.997-8.475-8.122-14.89-16.653-14.89l-209.767-0.011c-9.22,0-16.696,7.475-16.696,16.696v66.727
			c0,9.22,7.475,16.696,16.696,16.696h117.548c-10.827,28.179-29.633,52.403-53.575,70.013l49.928,86.478
			c50.256-34.056,88.467-85.547,105.297-146.331C512.175,288.709,513.822,256.751,510.247,226.38z"/>
            </g>
        </g>
        <g>
            <g>
                <path d="M318.93,398.381c-19.255,8.578-40.511,13.444-62.927,13.446c-51.619,0.001-97.252-25.327-125.613-64.026l-86.903,50.174
			C89.249,466.137,166.915,512,256.001,512c40.272,0,78.603-9.845,112.889-27.084L318.93,398.381z"/>
            </g>
        </g>
    </symbol>
    <!-- Star -->
    <symbol viewBox="0 0 512 512" id="star">
        <g>
            <polygon points="512,197.816 325.961,185.585 255.898,9.569 185.835,185.585 0,197.816 142.534,318.842 95.762,502.431 
			255.898,401.21 416.035,502.431 369.263,318.842 		"/>
        </g>
    </symbol>
</svg>